# xmcd CD database file
#
# Track frame offsets:
#	150
#	25824
#	43195
#	63834
#	82714
#	99874
#	118994
#	132593
#	154026
#	176524
#	195175
#	213523
#	227708
#	247423
#
# Disc length: 3447 seconds
#
# Revision: 2
# Processed by: cddbd v1.5.2PL0 Copyright (c) Steve Scherf et al.
# Submitted via: CDex 1.70beta3
#
DISCID=b80d750e
DTITLE=Like A Lover - Nicki Parrott And Ken Peplowski
DYEAR=2011
DGENRE=Jazz
TTITLE0=Blue Moon
TTITLE1=Everything I Love
TTITLE2=Hey There
TTITLE3=Sway/Whatever Lola Wants
TTITLE4=I've Grown Accustomed To His Face
TTITLE5=Sleepin' Bee
TTITLE6=In The Wee　Small Hours Of The Morning
TTITLE7=When I Grow Too Old To Dream
TTITLE8=Like A Lover
TTITLE9=Mad About The Boy
TTITLE10=Here, There, And Everywhere
TTITLE11=What'll I Do ?
TTITLE12=How Could You Do A Thing Like That To Me
TTITLE13=For No One
EXTD=YEAR: 2011
EXTT0=
EXTT1=
EXTT2=
EXTT3=
EXTT4=
EXTT5=
EXTT6=
EXTT7=
EXTT8=
EXTT9=
EXTT10=
EXTT11=
EXTT12=
EXTT13=
PLAYORDER=
